<svg width="254" height="27" viewBox="0 0 254 27" fill="none" xmlns="http://www.w3.org/2000/svg">
<path d="M4.98164 19H3.34785V10.4072H0.408398V9.00586H7.92109V10.4072H4.98164V19ZM12.45 19.1367C11.2743 19.1367 10.3537 18.7949 9.68832 18.1113C9.02751 17.4232 8.69711 16.4775 8.69711 15.2744C8.69711 14.0394 9.00473 13.0687 9.61996 12.3623C10.2352 11.6559 11.0806 11.3027 12.1561 11.3027C13.1541 11.3027 13.9426 11.6058 14.5213 12.2119C15.1001 12.818 15.3895 13.652 15.3895 14.7139V15.582H10.3514C10.3742 16.3158 10.5724 16.8809 10.9461 17.2773C11.3198 17.6693 11.8462 17.8652 12.5252 17.8652C12.9718 17.8652 13.3866 17.8242 13.7694 17.7422C14.1567 17.6556 14.5715 17.5143 15.0135 17.3184V18.624C14.6216 18.8109 14.2251 18.943 13.8241 19.0205C13.423 19.098 12.965 19.1367 12.45 19.1367ZM12.1561 12.5195C11.6457 12.5195 11.2355 12.6813 10.9256 13.0049C10.6203 13.3285 10.438 13.8001 10.3787 14.4199H13.8104C13.8013 13.7956 13.6509 13.3239 13.3592 13.0049C13.0676 12.6813 12.6665 12.5195 12.1561 12.5195ZM20.9096 11.3027C21.2332 11.3027 21.4998 11.3255 21.7095 11.3711L21.5522 12.8682C21.3244 12.8135 21.0874 12.7861 20.8413 12.7861C20.1987 12.7861 19.6769 12.9958 19.2759 13.415C18.8794 13.8343 18.6811 14.3789 18.6811 15.0488V19H17.0747V11.4395H18.3325L18.5444 12.7725H18.6264C18.8771 12.3213 19.2029 11.9635 19.604 11.6992C20.0096 11.4349 20.4448 11.3027 20.9096 11.3027ZM29.3487 19H27.7355V14.3379C27.7355 13.7591 27.6261 13.3285 27.4073 13.0459C27.1886 12.7588 26.8468 12.6152 26.382 12.6152C25.7622 12.6152 25.3064 12.818 25.0148 13.2236C24.7277 13.6247 24.5841 14.2946 24.5841 15.2334V19H22.9777V11.4395H24.2355L24.4611 12.4307H24.5431C24.7527 12.0706 25.0558 11.7926 25.4523 11.5967C25.8533 11.4007 26.2931 11.3027 26.7716 11.3027C27.9337 11.3027 28.7039 11.6992 29.0821 12.4922H29.1915C29.4148 12.1185 29.7293 11.8268 30.1349 11.6172C30.5405 11.4076 31.0053 11.3027 31.5294 11.3027C32.4318 11.3027 33.088 11.5306 33.4982 11.9863C33.9129 12.4421 34.1202 13.137 34.1202 14.0713V19H32.5138V14.3379C32.5138 13.7591 32.4021 13.3285 32.1788 13.0459C31.9601 12.7588 31.6183 12.6152 31.1534 12.6152C30.5291 12.6152 30.0711 12.8112 29.7794 13.2031C29.4923 13.5905 29.3487 14.1875 29.3487 14.9941V19ZM41.3015 16.8467C41.3015 17.585 41.0326 18.1523 40.4949 18.5488C39.9571 18.9408 39.1869 19.1367 38.1843 19.1367C37.1772 19.1367 36.3683 18.984 35.7576 18.6787V17.291C36.6462 17.7012 37.4734 17.9062 38.239 17.9062C39.228 17.9062 39.7224 17.6077 39.7224 17.0107C39.7224 16.8193 39.6677 16.6598 39.5584 16.5322C39.449 16.4046 39.269 16.2725 39.0183 16.1357C38.7677 15.999 38.419 15.8441 37.9724 15.6709C37.102 15.3337 36.5118 14.9964 36.2019 14.6592C35.8966 14.3219 35.7439 13.8844 35.7439 13.3467C35.7439 12.6995 36.0037 12.1982 36.5232 11.8428C37.0473 11.4827 37.7582 11.3027 38.656 11.3027C39.5447 11.3027 40.3855 11.4827 41.1785 11.8428L40.6589 13.0527C39.8432 12.7155 39.1573 12.5469 38.6013 12.5469C37.7537 12.5469 37.3298 12.7884 37.3298 13.2715C37.3298 13.5085 37.4392 13.709 37.658 13.873C37.8813 14.0371 38.3643 14.2627 39.1072 14.5498C39.7315 14.7913 40.185 15.0124 40.4675 15.2129C40.7501 15.4134 40.9597 15.6458 41.0964 15.9102C41.2332 16.1699 41.3015 16.4821 41.3015 16.8467ZM51.1319 19L50.8106 17.9473H50.7559C50.3913 18.4076 50.0245 18.722 49.6553 18.8906C49.2862 19.0547 48.8122 19.1367 48.2334 19.1367C47.4906 19.1367 46.9095 18.9362 46.4903 18.5352C46.0756 18.1341 45.8682 17.5667 45.8682 16.833C45.8682 16.0537 46.1576 15.4658 46.7364 15.0693C47.3151 14.6729 48.197 14.4564 49.3819 14.4199L50.6875 14.3789V13.9756C50.6875 13.4925 50.5736 13.1325 50.3457 12.8955C50.1224 12.654 49.7738 12.5332 49.2998 12.5332C48.9125 12.5332 48.5411 12.5902 48.1856 12.7041C47.8301 12.818 47.4883 12.9525 47.1602 13.1074L46.6407 11.959C47.0508 11.7448 47.4997 11.583 47.9873 11.4736C48.475 11.3597 48.9353 11.3027 49.3682 11.3027C50.3298 11.3027 51.0544 11.5124 51.542 11.9316C52.0342 12.3509 52.2803 13.0094 52.2803 13.9072V19H51.1319ZM48.7393 17.9062C49.3226 17.9062 49.7898 17.7445 50.1407 17.4209C50.4961 17.0928 50.6739 16.6348 50.6739 16.0469V15.3906L49.7032 15.4316C48.9467 15.459 48.3952 15.5866 48.0489 15.8145C47.7071 16.0378 47.5362 16.3818 47.5362 16.8467C47.5362 17.1839 47.6364 17.446 47.837 17.6328C48.0375 17.8151 48.3383 17.9062 48.7393 17.9062ZM61.0339 19H59.4206V14.3516C59.4206 13.7682 59.3021 13.333 59.0651 13.0459C58.8327 12.7588 58.4613 12.6152 57.9509 12.6152C57.2718 12.6152 56.7751 12.8158 56.4606 13.2168C56.1462 13.6178 55.9889 14.29 55.9889 15.2334V19H54.3825V11.4395H55.6403L55.8659 12.4307H55.9479C56.1758 12.0706 56.4994 11.7926 56.9186 11.5967C57.3379 11.4007 57.8027 11.3027 58.3132 11.3027C60.127 11.3027 61.0339 12.2256 61.0339 14.0713V19ZM65.679 19.1367C64.7357 19.1367 63.9997 18.7949 63.471 18.1113C62.9424 17.4277 62.678 16.4684 62.678 15.2334C62.678 13.9938 62.9446 13.0299 63.4779 12.3418C64.0156 11.6491 64.7585 11.3027 65.7064 11.3027C66.6999 11.3027 67.4564 11.6696 67.9759 12.4033H68.0579C67.9805 11.861 67.9417 11.4326 67.9417 11.1182V8.36328H69.555V19H68.2972L68.0169 18.0088H67.9417C67.4267 18.7607 66.6725 19.1367 65.679 19.1367ZM66.1097 17.8379C66.7705 17.8379 67.2513 17.6533 67.5521 17.2842C67.8529 16.9105 68.0078 16.3066 68.0169 15.4727V15.2471C68.0169 14.2946 67.862 13.6178 67.5521 13.2168C67.2422 12.8158 66.7568 12.6152 66.096 12.6152C65.5309 12.6152 65.0957 12.8454 64.7904 13.3057C64.485 13.7614 64.3323 14.4131 64.3323 15.2607C64.3323 16.0993 64.4805 16.7396 64.7767 17.1816C65.0729 17.6191 65.5172 17.8379 66.1097 17.8379ZM81.9967 12.0273C81.9967 13.071 81.6549 13.8708 80.9713 14.4268C80.2877 14.9827 79.3147 15.2607 78.0523 15.2607H77.0133V19H75.3795V9.00586H78.2574C79.5061 9.00586 80.4404 9.26107 81.0602 9.77148C81.6845 10.2819 81.9967 11.0339 81.9967 12.0273ZM77.0133 13.8867H77.8814C78.72 13.8867 79.3352 13.7409 79.7271 13.4492C80.1191 13.1576 80.315 12.7018 80.315 12.082C80.315 11.5078 80.1396 11.0794 79.7887 10.7969C79.4378 10.5143 78.8909 10.373 78.148 10.373H77.0133V13.8867ZM90.3879 15.2061C90.3879 16.4411 90.0712 17.4049 89.4377 18.0977C88.8043 18.7904 87.9224 19.1367 86.7922 19.1367C86.0858 19.1367 85.4615 18.9772 84.9192 18.6582C84.3769 18.3392 83.9599 17.8812 83.6682 17.2842C83.3765 16.6872 83.2307 15.9945 83.2307 15.2061C83.2307 13.9801 83.5452 13.0231 84.1741 12.335C84.803 11.6468 85.6894 11.3027 86.8332 11.3027C87.927 11.3027 88.7929 11.6559 89.4309 12.3623C90.0689 13.0641 90.3879 14.012 90.3879 15.2061ZM84.885 15.2061C84.885 16.9515 85.5299 17.8242 86.8196 17.8242C88.0956 17.8242 88.7336 16.9515 88.7336 15.2061C88.7336 13.4788 88.091 12.6152 86.8059 12.6152C86.1314 12.6152 85.6415 12.8385 85.3362 13.2852C85.0354 13.7318 84.885 14.3721 84.885 15.2061ZM93.7069 19H92.1005V8.36328H93.7069V19ZM97.4771 19H95.8706V11.4395H97.4771V19ZM95.7749 9.43652C95.7749 9.14941 95.8524 8.92839 96.0073 8.77344C96.1668 8.61849 96.3924 8.54102 96.6841 8.54102C96.9666 8.54102 97.1854 8.61849 97.3403 8.77344C97.4999 8.92839 97.5796 9.14941 97.5796 9.43652C97.5796 9.70996 97.4999 9.92643 97.3403 10.0859C97.1854 10.2409 96.9666 10.3184 96.6841 10.3184C96.3924 10.3184 96.1668 10.2409 96.0073 10.0859C95.8524 9.92643 95.7749 9.70996 95.7749 9.43652ZM102.69 19.1367C101.546 19.1367 100.675 18.804 100.078 18.1387C99.4858 17.4688 99.1896 16.5094 99.1896 15.2607C99.1896 13.9893 99.4995 13.0117 100.119 12.3281C100.744 11.6445 101.644 11.3027 102.819 11.3027C103.617 11.3027 104.335 11.4508 104.973 11.7471L104.487 13.0391C103.808 12.7747 103.248 12.6426 102.806 12.6426C101.498 12.6426 100.844 13.5107 100.844 15.2471C100.844 16.0947 101.006 16.7327 101.329 17.1611C101.657 17.585 102.136 17.7969 102.765 17.7969C103.48 17.7969 104.157 17.6191 104.795 17.2637V18.665C104.508 18.8337 104.2 18.9544 103.872 19.0273C103.549 19.1003 103.154 19.1367 102.69 19.1367ZM105.284 11.4395H107.034L108.572 15.7256C108.804 16.3363 108.959 16.9105 109.037 17.4482H109.092C109.133 17.1976 109.208 16.8945 109.317 16.5391C109.427 16.179 110.005 14.4792 111.054 11.4395H112.79L109.556 20.0049C108.969 21.5771 107.989 22.3633 106.617 22.3633C106.262 22.3633 105.915 22.3245 105.578 22.2471V20.9756C105.819 21.0303 106.095 21.0576 106.405 21.0576C107.18 21.0576 107.724 20.6087 108.039 19.7109L108.319 19L105.284 11.4395Z" fill="#FDFEFF"/>
<path d="M178 8.66066C177.338 8.94128 176.627 9.1309 175.879 9.2166C176.651 8.77503 177.228 8.08003 177.503 7.2613C176.778 7.67314 175.985 7.96302 175.158 8.11836C174.602 7.55017 173.865 7.17357 173.062 7.04702C172.259 6.92047 171.435 7.05105 170.718 7.41849C170.001 7.78594 169.43 8.36968 169.095 9.0791C168.76 9.78852 168.679 10.5839 168.865 11.3418C167.397 11.2713 165.96 10.9061 164.649 10.27C163.338 9.63395 162.181 8.74117 161.253 7.64963C160.936 8.17297 160.754 8.77973 160.754 9.42594C160.754 10.0077 160.903 10.5805 161.19 11.0936C161.476 11.6067 161.891 12.0442 162.396 12.3672C161.81 12.3494 161.237 12.1978 160.724 11.9251V11.9706C160.724 12.7865 161.019 13.5773 161.559 14.2088C162.099 14.8403 162.85 15.2736 163.686 15.4352C163.142 15.5761 162.572 15.5968 162.018 15.4959C162.254 16.1979 162.714 16.8118 163.332 17.2516C163.951 17.6915 164.698 17.9352 165.468 17.9487C164.16 18.9312 162.545 19.4642 160.882 19.4618C160.587 19.4619 160.293 19.4455 160 19.4125C161.688 20.451 163.653 21.0021 165.66 21C172.454 21 176.168 15.6165 176.168 10.9474C176.168 10.7957 176.164 10.6425 176.157 10.4908C176.879 9.99097 177.503 9.37201 177.998 8.66293L178 8.66066Z" fill="#FDFEFF"/>
<path d="M211.197 22V15.1689H213.566L213.919 12.4943H211.197V10.7907C211.197 10.0189 211.418 9.49053 212.557 9.49053H214V7.10599C213.298 7.03281 212.592 6.99747 211.886 7.00014C209.792 7.00014 208.354 8.24367 208.354 10.5265V12.4893H206V15.1639H208.359V22H211.197Z" fill="#FDFEFF"/>
<path fill-rule="evenodd" clip-rule="evenodd" d="M245.2 12.8783H247.8V14.1733C248.175 13.4285 249.135 12.7593 250.578 12.7593C253.343 12.7593 254 14.2419 254 16.9621V22H251.2V17.5816C251.2 16.0325 250.826 15.1589 249.872 15.1589C248.55 15.1589 248 16.1004 248 17.5809V22H245.2V12.8783ZM240.399 21.881H243.199V12.7593H240.399V21.881ZM243.6 9.785C243.6 10.0197 243.554 10.2521 243.463 10.4686C243.373 10.6852 243.24 10.8816 243.073 11.0464C242.734 11.3828 242.276 11.5712 241.799 11.57C241.323 11.5697 240.865 11.3818 240.526 11.0471C240.36 10.8817 240.228 10.6851 240.137 10.4685C240.047 10.2519 240 10.0197 240 9.785C240 9.3111 240.189 8.8575 240.527 8.5229C240.866 8.18771 241.323 7.99979 241.8 8C242.277 8 242.735 8.1883 243.073 8.5229C243.41 8.8575 243.6 9.3111 243.6 9.785Z" fill="#FDFEFF"/>
</svg>
